M48
; DRILL file {KiCad 9.0.4} date 2026-01-15T13:27:47-0600
; FORMAT={-:-/ absolute / inch / decimal}
; #@! TF.CreationDate,2026-01-15T13:27:47-06:00
; #@! TF.GenerationSoftware,Kicad,Pcbnew,9.0.4
; #@! TF.FileFunction,NonPlated,1,2,NPTH
FMAT,2
INCH
; #@! TA.AperFunction,NonPlated,NPTH,ComponentDrill
T1C0.0669
; #@! TA.AperFunction,NonPlated,NPTH,ComponentDrill
T2C0.1181
%
G90
G05
T1
X3.4939Y-3.7165
X3.4939Y-4.2087
X3.4939Y-2.9085
X3.4939Y-3.2038
X3.4939Y-3.4243
X3.4939Y-3.5227
X3.8081Y-4.9583
X3.8291Y-2.4339
X3.9276Y-2.4339
X4.1437Y-2.4339
X4.2421Y-2.4339
X4.3002Y-4.9583
X4.8358Y-2.4315
X5.1311Y-2.4315
X5.3472Y-2.4315
X5.6425Y-2.4315
X5.9616Y-2.433
X6.2569Y-2.433
X7.1339Y-2.4327
X7.2323Y-2.4327
X7.4488Y-2.4327
X7.5473Y-2.4327
X8.4898Y-4.1929
X8.4898Y-4.2913
X8.5Y-2.7175
X8.5Y-2.9144
X8.5Y-3.6575
X8.5Y-3.8543
X8.5031Y-3.1171
X8.5031Y-3.4124
T2
X4.8228Y-3.5551
X4.8228Y-4.9134
X6.7717Y-3.5551
X6.7717Y-4.9134
M30
