M48
; DRILL file {KiCad 9.0.4} date 2026-01-15T12:46:55-0600
; FORMAT={-:-/ absolute / inch / decimal}
; #@! TF.CreationDate,2026-01-15T12:46:55-06:00
; #@! TF.GenerationSoftware,Kicad,Pcbnew,9.0.4
; #@! TF.FileFunction,Plated,1,2,PTH
FMAT,2
INCH
; #@! TA.AperFunction,Plated,PTH,ViaDrill
T1C0.0118
; #@! TA.AperFunction,Plated,PTH,ViaDrill
T2C0.0236
; #@! TA.AperFunction,Plated,PTH,ComponentDrill
T3C0.0394
; #@! TA.AperFunction,Plated,PTH,ComponentDrill
T4C0.0472
; #@! TA.AperFunction,Plated,PTH,ComponentDrill
T5C0.0701
; #@! TA.AperFunction,Plated,PTH,ComponentDrill
T6C0.1260
%
G90
G05
T1
X3.6002Y-2.9374
X3.6018Y-3.1622
X3.6258Y-2.8705
X3.6274Y-3.2292
X3.6407Y-3.7864
X3.6411Y-3.6919
X3.6417Y-3.6142
X3.6514Y-2.9374
X3.653Y-3.1622
X3.7146Y-4.5224
X3.7146Y-4.5787
X3.7154Y-4.3488
X3.7421Y-3.6644
X3.7894Y-3.3465
X3.8335Y-4.522
X3.8335Y-4.5783
X3.8343Y-4.3484
X3.874Y-3.2717
X3.8878Y-3.3465
X3.8878Y-3.4055
X3.9803Y-4.2835
X4.0232Y-4.5917
X4.0339Y-2.687
X4.0409Y-4.8677
X4.0409Y-4.924
X4.06Y-3.2864
X4.0945Y-4.2795
X4.1445Y-4.5894
X4.1555Y-2.8799
X4.185Y-4.1535
X4.2008Y-4.2795
X4.2343Y-3.437
X4.239Y-4.8673
X4.239Y-4.9236
X4.2402Y-4.0354
X4.2437Y-4.5909
X4.2441Y-4.0945
X4.247Y-3.8031
X4.252Y-3.7402
X4.253Y-3.9183
X4.2559Y-3.5512
X4.2569Y-3.69
X4.3028Y-3.8094
X4.3219Y-3.2283
X4.3264Y-3.5449
X4.328Y-3.9232
X4.3858Y-4.4252
X4.3858Y-4.4764
X4.4134Y-4.3228
X4.4134Y-4.378
X4.4291Y-4.5531
X4.4882Y-4.4547
X4.5512Y-4.6201
X4.5815Y-5.072
X4.5965Y-4.2815
X4.6004Y-3.9163
X4.6024Y-4.1004
X4.628Y-3.7579
X4.6457Y-4.5276
X4.6772Y-3.9724
X4.685Y-3.7795
X4.685Y-4.1535
X4.686Y-3.7156
X4.6874Y-4.6807
X4.689Y-4.3346
X4.7165Y-4.9715
X4.8551Y-4.6768
X4.9339Y-2.6087
X4.9646Y-4.4291
X4.9774Y-3.1358
X5.002Y-4.5854
X5.0122Y-4.2165
X5.0276Y-4.3965
X5.085Y-4.9587
X5.0874Y-2.774
X5.0898Y-5.063
X5.0972Y-4.5843
X5.115Y-4.2165
X5.115Y-4.3976
X5.1791Y-4.8415
X5.1949Y-4.8937
X5.2096Y-4.9774
X5.2354Y-2.6295
X5.2354Y-2.7152
X5.2461Y-3.7992
X5.2953Y-3.9764
X5.2953Y-4.1535
X5.2953Y-4.3307
X5.2953Y-4.5177
X5.2953Y-4.6358
X5.3307Y-4.7087
X5.3346Y-3.878
X5.3594Y-4.0732
X5.3709Y-4.2579
X5.3898Y-4.8602
X5.3982Y-4.7486
X5.3988Y-2.639
X5.4035Y-3.2638
X5.4085Y-3.4183
X5.4134Y-4.5866
X5.4134Y-4.4594
X5.4134Y-5.0295
X5.4165Y-4.3594
X5.4213Y-4.8957
X5.4248Y-3.6575
X5.4398Y-4.1713
X5.4563Y-4.5469
X5.4685Y-3.3701
X5.4776Y-3.4183
X5.4783Y-4.9035
X5.4921Y-3.6024
X5.5Y-3.748
X5.5Y-3.8307
X5.5Y-3.9754
X5.5134Y-4.9083
X5.5433Y-4.876
X5.5872Y-4.8781
X5.6087Y-2.9207
X5.6274Y-4.4071
X5.6496Y-3.937
X5.6969Y-3.4094
X5.6988Y-3.6585
X5.6992Y-2.8516
X5.7047Y-4.2606
X5.7071Y-4.0618
X5.7362Y-4.6665
X5.7413Y-4.4469
X5.7539Y-3.3061
X5.7854Y-4.8641
X5.7874Y-3.5
X5.7976Y-4.9654
X5.8213Y-4.9937
X5.8366Y-3.9272
X5.8614Y-4.0055
X5.8622Y-3.4252
X5.8646Y-4.185
X5.8693Y-4.6961
X5.8705Y-4.872
X5.8858Y-3.6339
X5.9406Y-2.9186
X5.978Y-4.8641
X5.9969Y-5.0464
X6.003Y-3.4124
X6.0079Y-3.0733
X6.0381Y-4.8966
X6.0512Y-5.0413
X6.0531Y-3.937
X6.0705Y-4.1969
X6.0709Y-4.6654
X6.0736Y-4.5004
X6.1063Y-3.4124
X6.1142Y-3.1004
X6.122Y-3.3701
X6.1479Y-4.9214
X6.1799Y-4.0409
X6.1925Y-4.9764
X6.2165Y-3.03
X6.2441Y-4.1929
X6.2551Y-4.752
X6.2589Y-3.0482
X6.2707Y-4.9193
X6.2874Y-4.752
X6.2913Y-3.034
X6.3154Y-4.4862
X6.3157Y-4.3969
X6.3189Y-3.937
X6.3268Y-4.752
X6.3386Y-4.9409
X6.3622Y-3.3976
X6.3622Y-4.752
X6.378Y-4.9409
X6.4055Y-2.7003
X6.4055Y-2.7515
X6.4455Y-4.7185
X6.4459Y-4.9081
X6.4656Y-3.064
X6.4705Y-2.7008
X6.4705Y-2.752
X6.4732Y-4.0433
X6.4764Y-3.878
X6.4815Y-3.2689
X6.4843Y-3.3508
X6.489Y-3.6024
X6.489Y-3.6815
X6.5079Y-4.1722
X6.5083Y-4.2524
X6.5736Y-4.9087
X6.5758Y-3.8622
X6.5762Y-4.7165
X6.5984Y-3.6339
X6.6055Y-4.3197
X6.6547Y-2.9179
X6.6862Y-4.9091
X6.689Y-4.7181
X6.7Y-4.2339
X6.7323Y-4.0016
X6.7772Y-4.2311
X6.7835Y-4.7165
X6.8276Y-4.0008
X6.8488Y-4.2327
X6.9173Y-4.0
X6.9518Y-4.8823
X6.9567Y-4.3386
X6.9602Y-4.7146
X6.9803Y-3.9941
X7.0646Y-4.8839
X7.0744Y-3.8154
X7.0744Y-3.9276
X7.0965Y-4.2177
X7.1154Y-4.1075
X7.1256Y-3.8154
X7.1256Y-3.9276
X7.1465Y-4.2902
X7.1545Y-2.9705
X7.1732Y-4.4134
X7.2018Y-4.1535
X7.203Y-3.0899
X7.203Y-3.1411
X7.2165Y-4.6654
X7.2606Y-3.0003
X7.2606Y-3.0515
X7.2638Y-4.0394
X7.2638Y-4.0827
X7.2638Y-4.1339
X7.2677Y-4.185
X7.2677Y-4.2362
X7.3071Y-4.0394
X7.3346Y-4.6654
X7.3409Y-2.7126
X7.376Y-3.4222
X7.376Y-3.4734
X7.4049Y-4.464
X7.4063Y-4.3988
X7.4311Y-3.4222
X7.4311Y-3.4734
X7.4488Y-4.6654
X7.4736Y-4.9232
X7.4748Y-2.9142
X7.4882Y-3.4222
X7.4882Y-3.4734
X7.5039Y-2.8386
X7.5236Y-4.3307
X7.5551Y-4.4252
X7.5591Y-4.6693
X7.5945Y-2.8386
X7.6035Y-4.9232
X7.6142Y-4.3661
X7.6152Y-3.1555
X7.6407Y-3.2224
X7.6445Y-2.9134
X7.6663Y-3.1555
X7.6732Y-4.6654
X7.6969Y-4.1732
X7.6969Y-4.2126
X7.6969Y-4.252
X7.7146Y-5.0669
X7.7314Y-4.5267
X7.7362Y-4.1732
X7.7362Y-4.2126
X7.7362Y-4.252
X7.7575Y-3.3713
X7.7717Y-5.0669
X7.7756Y-4.2126
X7.7756Y-4.252
X7.7874Y-4.6614
X7.8291Y-3.3894
X7.8976Y-4.7717
X7.9075Y-4.4085
X7.9075Y-4.4596
X7.9499Y-3.3337
X7.9626Y-4.4085
X7.9626Y-4.4596
X7.9852Y-3.687
X8.0Y-4.1969
X8.0039Y-3.2441
X8.0079Y-3.6535
X8.0197Y-4.4085
X8.0197Y-4.4596
X8.1063Y-4.6969
X8.1134Y-3.3841
X8.1138Y-4.5606
X8.135Y-4.8327
X8.1634Y-3.9823
X8.1634Y-4.0335
X8.1762Y-4.5765
X8.2185Y-3.9823
X8.2185Y-4.0335
X8.248Y-4.6929
X8.3031Y-4.6929
X8.3535Y-3.0571
X8.3547Y-3.2496
X8.3744Y-2.8435
X8.3858Y-4.5276
X8.3898Y-4.4488
X8.3898Y-4.6063
X8.4Y-2.7766
X8.4256Y-2.8435
X8.4618Y-4.6937
X8.4634Y-3.6067
X8.4685Y-3.9205
X8.485Y-4.3602
X8.4858Y-4.1252
X8.5Y-3.2524
X8.5012Y-3.0559
X8.5126Y-3.7642
X8.5339Y-4.2449
X8.5697Y-3.5346
X8.5937Y-4.5854
X8.6114Y-4.763
X8.6114Y-4.8201
T2
X5.1236Y-3.0526
X5.2346Y-2.4732
X5.2862Y-3.0541
X5.3988Y-4.6953
X5.5236Y-3.0541
X5.6862Y-3.0557
X8.378Y-3.6693
T3
X7.7244Y-4.4094
X7.8244Y-4.4094
T4
X3.7766Y-3.7165
X3.7766Y-3.815
X3.7766Y-3.9134
X3.7766Y-4.0118
X3.7766Y-4.1102
X3.7766Y-4.2087
X3.7766Y-2.9085
X3.7766Y-3.0069
X3.7766Y-3.1054
X3.7766Y-3.2038
X3.7766Y-3.4243
X3.7766Y-3.5227
X3.8081Y-4.6756
X3.8291Y-2.7165
X3.875Y-3.7165
X3.875Y-3.815
X3.875Y-3.9134
X3.875Y-4.0118
X3.875Y-4.1102
X3.875Y-4.2087
X3.9065Y-4.6756
X3.9276Y-2.7165
X4.0049Y-4.6756
X4.1033Y-4.6756
X4.1437Y-2.7165
X4.2018Y-4.6756
X4.2421Y-2.7165
X4.3002Y-4.6756
X4.8358Y-2.7142
X4.9343Y-2.7142
X5.0327Y-2.7142
X5.1311Y-2.7142
X5.3472Y-2.7142
X5.4457Y-2.7142
X5.5441Y-2.7142
X5.6425Y-2.7142
X5.9616Y-2.7156
X6.06Y-2.7156
X6.1585Y-2.7156
X6.2569Y-2.7156
X7.1339Y-2.7153
X7.2323Y-2.7153
X7.4488Y-2.7153
X7.5473Y-2.7153
X8.1189Y-3.6575
X8.1189Y-3.7559
X8.1189Y-3.8543
X8.2071Y-4.1929
X8.2071Y-4.2913
X8.2173Y-2.7175
X8.2173Y-2.8159
X8.2173Y-2.9144
X8.2173Y-3.6575
X8.2173Y-3.7559
X8.2173Y-3.8543
X8.2205Y-3.1171
X8.2205Y-3.2156
X8.2205Y-3.314
X8.2205Y-3.4124
T5
X7.2392Y-3.4636
X7.2392Y-3.5974
X7.3047Y-3.7805
X7.3047Y-3.9144
X7.6297Y-3.4636
X7.6297Y-3.5974
X7.6953Y-3.7805
X7.6953Y-3.9144
T6
X3.5433Y-2.4803
X3.5433Y-4.9213
X8.4646Y-2.4803
X8.4646Y-4.9213
M30
