M48
; DRILL file {KiCad 9.0.4} date 2026-01-15T12:54:17-0600
; FORMAT={-:-/ absolute / metric / decimal}
; #@! TF.CreationDate,2026-01-15T12:54:17-06:00
; #@! TF.GenerationSoftware,Kicad,Pcbnew,9.0.4
; #@! TF.FileFunction,NonPlated,1,2,NPTH
FMAT,2
METRIC
; #@! TA.AperFunction,NonPlated,NPTH,ComponentDrill
T1C1.700
; #@! TA.AperFunction,NonPlated,NPTH,ComponentDrill
T2C3.000
%
G90
G05
T1
X88.745Y-94.4
X88.745Y-106.9
X88.746Y-73.876
X88.746Y-81.376
X88.746Y-86.976
X88.746Y-89.476
X96.725Y-125.94
X97.26Y-61.82
X99.76Y-61.82
X105.25Y-61.82
X107.75Y-61.82
X109.225Y-125.94
X122.83Y-61.76
X130.33Y-61.76
X135.82Y-61.76
X143.32Y-61.76
X151.425Y-61.797
X158.925Y-61.797
X181.201Y-61.79
X183.701Y-61.79
X189.201Y-61.79
X191.701Y-61.79
X215.64Y-106.5
X215.64Y-109.0
X215.9Y-69.025
X215.9Y-74.025
X215.9Y-92.9
X215.9Y-97.9
X215.98Y-79.175
X215.98Y-86.675
T2
X122.5Y-90.3
X122.5Y-124.8
X172.0Y-90.3
X172.0Y-124.8
M30
