M48
; DRILL file {KiCad 9.0.4} date 2026-01-15T12:54:17-0600
; FORMAT={-:-/ absolute / metric / decimal}
; #@! TF.CreationDate,2026-01-15T12:54:17-06:00
; #@! TF.GenerationSoftware,Kicad,Pcbnew,9.0.4
; #@! TF.FileFunction,Plated,1,2,PTH
FMAT,2
METRIC
; #@! TA.AperFunction,Plated,PTH,ViaDrill
T1C0.300
; #@! TA.AperFunction,Plated,PTH,ViaDrill
T2C0.600
; #@! TA.AperFunction,Plated,PTH,ComponentDrill
T3C1.000
; #@! TA.AperFunction,Plated,PTH,ComponentDrill
T4C1.200
; #@! TA.AperFunction,Plated,PTH,ComponentDrill
T5C1.780
; #@! TA.AperFunction,Plated,PTH,ComponentDrill
T6C3.200
%
G90
G05
T1
X91.446Y-74.611
X91.486Y-80.321
X92.096Y-72.911
X92.136Y-82.021
X92.475Y-96.175
X92.485Y-93.775
X92.5Y-91.8
X92.746Y-74.611
X92.786Y-80.321
X94.35Y-114.87
X94.35Y-116.3
X94.37Y-110.46
X95.05Y-93.075
X96.25Y-85.0
X97.37Y-114.86
X97.37Y-116.29
X97.39Y-110.45
X98.4Y-83.1
X98.75Y-85.0
X98.75Y-86.5
X101.1Y-108.8
X102.19Y-116.63
X102.46Y-68.25
X102.64Y-123.64
X102.64Y-125.07
X103.125Y-83.475
X104.0Y-108.7
X105.27Y-116.57
X105.55Y-73.15
X106.3Y-105.5
X106.7Y-108.7
X107.55Y-87.3
X107.67Y-123.63
X107.67Y-125.06
X107.7Y-102.5
X107.79Y-116.61
X107.8Y-104.0
X107.875Y-96.6
X108.0Y-95.0
X108.025Y-99.525
X108.1Y-90.2
X108.125Y-93.725
X109.29Y-96.76
X109.775Y-82.0
X109.89Y-90.04
X109.93Y-99.65
X111.4Y-112.4
X111.4Y-113.7
X112.1Y-109.8
X112.1Y-111.2
X112.5Y-115.65
X114.0Y-113.15
X115.6Y-117.35
X116.37Y-128.83
X116.75Y-108.75
X116.85Y-99.475
X116.9Y-104.15
X117.55Y-95.45
X118.0Y-115.0
X118.8Y-100.9
X119.0Y-96.0
X119.0Y-105.5
X119.025Y-94.375
X119.06Y-118.89
X119.1Y-110.1
X119.8Y-126.275
X123.32Y-118.79
X125.32Y-66.26
X126.1Y-112.5
X126.425Y-79.65
X127.05Y-116.47
X127.31Y-107.1
X127.7Y-111.67
X129.16Y-125.95
X129.22Y-70.46
X129.28Y-128.6
X129.47Y-116.44
X129.92Y-107.1
X129.92Y-111.7
X131.55Y-122.975
X131.95Y-124.3
X132.325Y-126.425
X132.98Y-66.79
X132.98Y-68.965
X133.25Y-96.5
X134.5Y-101.0
X134.5Y-105.5
X134.5Y-110.0
X134.5Y-114.75
X134.5Y-117.75
X135.4Y-119.6
X135.5Y-98.5
X136.13Y-103.46
X136.42Y-108.15
X136.901Y-123.45
X137.114Y-120.614
X137.13Y-67.03
X137.25Y-82.9
X137.375Y-86.825
X137.499Y-116.501
X137.5Y-113.27
X137.5Y-127.75
X137.58Y-110.73
X137.7Y-124.35
X137.79Y-92.9
X138.17Y-105.95
X138.59Y-115.49
X138.9Y-85.6
X139.13Y-86.825
X139.15Y-124.55
X139.5Y-91.5
X139.7Y-95.2
X139.7Y-97.3
X139.7Y-100.975
X140.04Y-124.67
X140.8Y-123.851
X141.915Y-123.904
X142.46Y-74.185
X142.936Y-111.94
X143.5Y-100.0
X144.7Y-86.6
X144.75Y-92.925
X144.76Y-72.43
X144.9Y-108.22
X144.96Y-103.17
X145.7Y-118.53
X145.83Y-112.95
X146.15Y-83.975
X146.95Y-123.549
X147.0Y-88.9
X147.26Y-126.12
X147.86Y-126.84
X148.25Y-99.75
X148.88Y-101.74
X148.9Y-87.0
X148.96Y-106.3
X149.08Y-119.28
X149.11Y-123.75
X149.5Y-92.3
X150.89Y-74.132
X151.84Y-123.549
X152.321Y-128.179
X152.475Y-86.675
X152.6Y-78.062
X153.368Y-124.374
X153.7Y-128.05
X153.75Y-100.0
X154.19Y-106.6
X154.2Y-118.5
X154.27Y-114.31
X155.1Y-86.675
X155.3Y-78.75
X155.5Y-85.6
X156.156Y-125.004
X156.97Y-102.64
X157.29Y-126.4
X157.9Y-76.962
X158.6Y-106.5
X158.88Y-120.7
X158.975Y-77.425
X159.275Y-124.95
X159.7Y-120.7
X159.8Y-77.062
X160.41Y-113.95
X160.42Y-111.68
X160.5Y-100.0
X160.7Y-120.7
X161.0Y-125.5
X161.6Y-86.3
X161.6Y-120.7
X162.0Y-125.5
X162.7Y-68.587
X162.7Y-69.888
X163.715Y-119.85
X163.725Y-124.665
X164.225Y-77.825
X164.35Y-68.6
X164.35Y-69.9
X164.42Y-102.7
X164.5Y-98.5
X164.63Y-83.03
X164.7Y-85.11
X164.82Y-91.5
X164.82Y-93.51
X165.3Y-105.975
X165.312Y-108.012
X166.97Y-124.68
X167.025Y-98.1
X167.035Y-119.8
X167.6Y-92.3
X167.78Y-109.72
X169.03Y-74.115
X169.83Y-124.69
X169.9Y-119.84
X170.18Y-107.54
X171.0Y-101.64
X172.14Y-107.47
X172.3Y-119.8
X173.42Y-101.62
X173.96Y-107.51
X175.7Y-101.6
X176.575Y-124.01
X176.7Y-110.2
X176.79Y-119.75
X177.3Y-101.45
X179.44Y-124.05
X179.69Y-96.91
X179.69Y-99.76
X180.25Y-107.13
X180.73Y-104.33
X180.99Y-96.91
X180.99Y-99.76
X181.52Y-108.97
X181.725Y-75.45
X182.2Y-112.1
X182.925Y-105.5
X182.955Y-78.484
X182.955Y-79.784
X183.3Y-118.5
X184.42Y-76.209
X184.42Y-77.509
X184.5Y-102.6
X184.5Y-103.7
X184.5Y-105.0
X184.6Y-106.3
X184.6Y-107.6
X185.6Y-102.6
X186.3Y-118.5
X186.46Y-68.9
X187.35Y-86.925
X187.35Y-88.225
X188.085Y-113.385
X188.12Y-111.73
X188.75Y-86.925
X188.75Y-88.225
X189.2Y-118.5
X189.83Y-125.05
X189.86Y-74.02
X190.2Y-86.925
X190.2Y-88.225
X190.6Y-72.1
X191.1Y-110.0
X191.9Y-112.4
X192.0Y-118.6
X192.9Y-72.1
X193.13Y-125.05
X193.4Y-110.9
X193.425Y-80.15
X194.075Y-81.85
X194.17Y-74.0
X194.725Y-80.15
X194.9Y-118.5
X195.5Y-106.0
X195.5Y-107.0
X195.5Y-108.0
X195.95Y-128.7
X196.378Y-114.978
X196.5Y-106.0
X196.5Y-107.0
X196.5Y-108.0
X197.04Y-85.63
X197.4Y-128.7
X197.5Y-107.0
X197.5Y-108.0
X197.8Y-118.4
X198.86Y-86.09
X200.6Y-121.2
X200.85Y-111.975
X200.85Y-113.275
X201.927Y-84.675
X202.25Y-111.975
X202.25Y-113.275
X202.825Y-93.65
X203.2Y-106.6
X203.3Y-82.4
X203.4Y-92.8
X203.7Y-111.975
X203.7Y-113.275
X205.9Y-119.3
X206.08Y-85.955
X206.09Y-115.84
X206.63Y-122.75
X207.35Y-101.15
X207.35Y-102.45
X207.674Y-116.244
X208.75Y-101.15
X208.75Y-102.45
X209.5Y-119.2
X210.9Y-119.2
X212.18Y-77.65
X212.21Y-82.54
X212.71Y-72.225
X213.0Y-115.0
X213.1Y-113.0
X213.1Y-117.0
X213.36Y-70.525
X214.01Y-72.225
X214.93Y-119.22
X214.97Y-91.61
X215.1Y-99.58
X215.52Y-110.75
X215.54Y-104.78
X215.9Y-82.61
X215.93Y-77.62
X216.22Y-95.61
X216.76Y-107.82
X217.67Y-89.78
X218.28Y-116.47
X218.73Y-120.98
X218.73Y-122.43
T2
X130.14Y-77.535
X132.96Y-62.82
X134.27Y-77.575
X137.13Y-119.26
X140.3Y-77.575
X144.43Y-77.615
X212.8Y-93.2
T3
X116.125Y-123.135
X116.125Y-125.675
X196.2Y-112.0
X198.74Y-112.0
T4
X95.925Y-94.4
X95.925Y-96.9
X95.925Y-99.4
X95.925Y-101.9
X95.925Y-104.4
X95.925Y-106.9
X95.926Y-73.876
X95.926Y-76.376
X95.926Y-78.876
X95.926Y-81.376
X95.926Y-86.976
X95.926Y-89.476
X96.725Y-118.76
X97.26Y-69.0
X98.425Y-94.4
X98.425Y-96.9
X98.425Y-99.4
X98.425Y-101.9
X98.425Y-104.4
X98.425Y-106.9
X99.225Y-118.76
X99.76Y-69.0
X101.725Y-118.76
X104.225Y-118.76
X105.25Y-69.0
X106.725Y-118.76
X107.75Y-69.0
X109.225Y-118.76
X122.83Y-68.94
X125.33Y-68.94
X127.83Y-68.94
X130.33Y-68.94
X135.82Y-68.94
X138.32Y-68.94
X140.82Y-68.94
X143.32Y-68.94
X151.425Y-68.977
X153.925Y-68.977
X156.425Y-68.977
X158.925Y-68.977
X181.201Y-68.97
X183.701Y-68.97
X189.201Y-68.97
X191.701Y-68.97
X206.22Y-92.9
X206.22Y-95.4
X206.22Y-97.9
X208.46Y-106.5
X208.46Y-109.0
X208.72Y-69.025
X208.72Y-71.525
X208.72Y-74.025
X208.72Y-92.9
X208.72Y-95.4
X208.72Y-97.9
X208.8Y-79.175
X208.8Y-81.675
X208.8Y-84.175
X208.8Y-86.675
T5
X183.875Y-87.975
X183.875Y-91.375
X185.54Y-96.025
X185.54Y-99.425
X193.795Y-87.975
X193.795Y-91.375
X195.46Y-96.025
X195.46Y-99.425
T6
X90.0Y-63.0
X90.0Y-125.0
X215.0Y-63.0
X215.0Y-125.0
M30
