%TF.GenerationSoftware,KiCad,Pcbnew,9.0.4*%
%TF.CreationDate,2026-01-15T12:54:10-06:00*%
%TF.ProjectId,ControlsLeader_PCB,436f6e74-726f-46c7-934c-65616465725f,rev?*%
%TF.SameCoordinates,Original*%
%TF.FileFunction,Paste,Top*%
%TF.FilePolarity,Positive*%
%FSLAX46Y46*%
G04 Gerber Fmt 4.6, Leading zero omitted, Abs format (unit mm)*
G04 Created by KiCad (PCBNEW 9.0.4) date 2026-01-15 12:54:10*
%MOMM*%
%LPD*%
G01*
G04 APERTURE LIST*
G04 Aperture macros list*
%AMRoundRect*
0 Rectangle with rounded corners*
0 $1 Rounding radius*
0 $2 $3 $4 $5 $6 $7 $8 $9 X,Y pos of 4 corners*
0 Add a 4 corners polygon primitive as box body*
4,1,4,$2,$3,$4,$5,$6,$7,$8,$9,$2,$3,0*
0 Add four circle primitives for the rounded corners*
1,1,$1+$1,$2,$3*
1,1,$1+$1,$4,$5*
1,1,$1+$1,$6,$7*
1,1,$1+$1,$8,$9*
0 Add four rect primitives between the rounded corners*
20,1,$1+$1,$2,$3,$4,$5,0*
20,1,$1+$1,$4,$5,$6,$7,0*
20,1,$1+$1,$6,$7,$8,$9,0*
20,1,$1+$1,$8,$9,$2,$3,0*%
G04 Aperture macros list end*
%ADD10RoundRect,0.237500X-0.237500X0.287500X-0.237500X-0.287500X0.237500X-0.287500X0.237500X0.287500X0*%
%ADD11RoundRect,0.237500X0.287500X0.237500X-0.287500X0.237500X-0.287500X-0.237500X0.287500X-0.237500X0*%
%ADD12RoundRect,0.237500X0.237500X-0.300000X0.237500X0.300000X-0.237500X0.300000X-0.237500X-0.300000X0*%
%ADD13RoundRect,0.120000X0.280000X0.480000X-0.280000X0.480000X-0.280000X-0.480000X0.280000X-0.480000X0*%
%ADD14RoundRect,0.237500X-0.237500X0.250000X-0.237500X-0.250000X0.237500X-0.250000X0.237500X0.250000X0*%
%ADD15RoundRect,0.237500X-0.250000X-0.237500X0.250000X-0.237500X0.250000X0.237500X-0.250000X0.237500X0*%
%ADD16RoundRect,0.237500X0.300000X0.237500X-0.300000X0.237500X-0.300000X-0.237500X0.300000X-0.237500X0*%
%ADD17RoundRect,0.237500X-0.300000X-0.237500X0.300000X-0.237500X0.300000X0.237500X-0.300000X0.237500X0*%
%ADD18R,1.200000X0.450000*%
%ADD19RoundRect,0.237500X0.237500X-0.250000X0.237500X0.250000X-0.237500X0.250000X-0.237500X-0.250000X0*%
%ADD20RoundRect,0.237500X0.237500X-0.287500X0.237500X0.287500X-0.237500X0.287500X-0.237500X-0.287500X0*%
%ADD21RoundRect,0.120000X-0.480000X0.280000X-0.480000X-0.280000X0.480000X-0.280000X0.480000X0.280000X0*%
%ADD22RoundRect,0.237500X0.250000X0.237500X-0.250000X0.237500X-0.250000X-0.237500X0.250000X-0.237500X0*%
%ADD23RoundRect,0.175000X-0.325000X-0.175000X0.325000X-0.175000X0.325000X0.175000X-0.325000X0.175000X0*%
%ADD24RoundRect,0.237500X-0.287500X-0.237500X0.287500X-0.237500X0.287500X0.237500X-0.287500X0.237500X0*%
%ADD25R,1.000000X0.750000*%
%ADD26R,0.480000X0.750000*%
%ADD27R,2.720000X4.560000*%
%ADD28R,0.910000X5.560000*%
%ADD29R,0.420000X4.560000*%
%ADD30RoundRect,0.237500X-0.237500X0.300000X-0.237500X-0.300000X0.237500X-0.300000X0.237500X0.300000X0*%
%ADD31RoundRect,0.120000X0.480000X-0.280000X0.480000X0.280000X-0.480000X0.280000X-0.480000X-0.280000X0*%
%ADD32R,0.550000X1.800000*%
%ADD33R,0.950000X1.020000*%
%ADD34R,1.528000X0.650000*%
%ADD35R,0.750000X1.000000*%
%ADD36R,0.750000X0.480000*%
%ADD37R,4.560000X2.720000*%
%ADD38R,5.560000X0.910000*%
%ADD39R,4.560000X0.420000*%
%ADD40RoundRect,0.120000X-0.280000X-0.480000X0.280000X-0.480000X0.280000X0.480000X-0.280000X0.480000X0*%
%ADD41RoundRect,0.250000X-0.300000X-0.300000X0.300000X-0.300000X0.300000X0.300000X-0.300000X0.300000X0*%
%ADD42R,1.020000X0.950000*%
%ADD43R,0.800000X0.550000*%
%ADD44RoundRect,0.250000X0.300000X0.300000X-0.300000X0.300000X-0.300000X-0.300000X0.300000X-0.300000X0*%
%ADD45R,0.930000X1.520000*%
%ADD46R,1.670000X1.970000*%
%ADD47RoundRect,0.250000X2.500000X-1.750000X2.500000X1.750000X-2.500000X1.750000X-2.500000X-1.750000X0*%
G04 APERTURE END LIST*
D10*
%TO.C,D20*%
X196305000Y-122125000D03*
X196305000Y-123875000D03*
%TD*%
D11*
%TO.C,D28*%
X176125000Y-71051000D03*
X174375000Y-71051000D03*
%TD*%
D12*
%TO.C,C28*%
X205300000Y-122650000D03*
X205300000Y-120925000D03*
%TD*%
D13*
%TO.C,Q5*%
X143900000Y-93775000D03*
X144850000Y-91675000D03*
X142950000Y-91675000D03*
%TD*%
D14*
%TO.C,R21*%
X156550000Y-75187500D03*
X156550000Y-77012500D03*
%TD*%
D15*
%TO.C,R19*%
X104617500Y-92200000D03*
X106442500Y-92200000D03*
%TD*%
D16*
%TO.C,C31*%
X182830000Y-82264750D03*
X181105000Y-82264750D03*
%TD*%
D17*
%TO.C,C20*%
X199535000Y-87250000D03*
X201260000Y-87250000D03*
%TD*%
D18*
%TO.C,IC1*%
X186860000Y-111080000D03*
X186860000Y-111730000D03*
X186860000Y-112380000D03*
X186860000Y-113030000D03*
X189360000Y-113030000D03*
X189360000Y-112380000D03*
X189360000Y-111730000D03*
X189360000Y-111080000D03*
%TD*%
D17*
%TO.C,C3*%
X148675000Y-88100000D03*
X150400000Y-88100000D03*
%TD*%
D19*
%TO.C,R28*%
X104020000Y-112232500D03*
X104020000Y-110407500D03*
%TD*%
D17*
%TO.C,C10*%
X154187500Y-88100000D03*
X155912500Y-88100000D03*
%TD*%
D20*
%TO.C,D7*%
X161200000Y-73512500D03*
X161200000Y-71762500D03*
%TD*%
D15*
%TO.C,R37*%
X165800000Y-110950000D03*
X167625000Y-110950000D03*
%TD*%
D10*
%TO.C,D18*%
X207805000Y-122125000D03*
X207805000Y-123875000D03*
%TD*%
D21*
%TO.C,Q14*%
X126400000Y-109600000D03*
X124300000Y-108650000D03*
X124300000Y-110550000D03*
%TD*%
D20*
%TO.C,D8*%
X153700000Y-73362500D03*
X153700000Y-71612500D03*
%TD*%
D15*
%TO.C,R27*%
X104455000Y-104000000D03*
X106280000Y-104000000D03*
%TD*%
D19*
%TO.C,R34*%
X149600000Y-98525000D03*
X149600000Y-96700000D03*
%TD*%
D12*
%TO.C,C14*%
X120400000Y-119662500D03*
X120400000Y-117937500D03*
%TD*%
D22*
%TO.C,R56*%
X204785000Y-87250000D03*
X202960000Y-87250000D03*
%TD*%
D15*
%TO.C,R3*%
X148625000Y-89700000D03*
X150450000Y-89700000D03*
%TD*%
D23*
%TO.C,U1*%
X191060000Y-111092500D03*
X191060000Y-112992500D03*
X193460000Y-112042500D03*
%TD*%
D24*
%TO.C,CC_FLT1*%
X183200000Y-116220000D03*
X184950000Y-116220000D03*
%TD*%
D25*
%TO.C,Q6*%
X185600000Y-103700000D03*
X185600000Y-104970000D03*
X185600000Y-106240000D03*
X185600000Y-107510000D03*
D26*
X191360000Y-107510000D03*
X191360000Y-103700000D03*
D27*
X189760000Y-105605000D03*
D28*
X187945000Y-105605000D03*
D29*
X187280000Y-105605000D03*
%TD*%
D12*
%TO.C,C27*%
X216800000Y-114002500D03*
X216800000Y-112277500D03*
%TD*%
D30*
%TO.C,C7*%
X175100000Y-95825000D03*
X175100000Y-97550000D03*
%TD*%
D31*
%TO.C,Q7*%
X169600000Y-104350000D03*
X171700000Y-105300000D03*
X171700000Y-103400000D03*
%TD*%
D19*
%TO.C,R54*%
X187730000Y-120325000D03*
X187730000Y-118500000D03*
%TD*%
%TO.C,R45*%
X203600000Y-122700000D03*
X203600000Y-120875000D03*
%TD*%
%TO.C,R15*%
X122450000Y-110525000D03*
X122450000Y-108700000D03*
%TD*%
D13*
%TO.C,Q3*%
X162050000Y-93650000D03*
X163000000Y-91550000D03*
X161100000Y-91550000D03*
%TD*%
D12*
%TO.C,C12*%
X120450000Y-110475000D03*
X120450000Y-108750000D03*
%TD*%
D19*
%TO.C,R30*%
X108920000Y-112157500D03*
X108920000Y-110332500D03*
%TD*%
%TO.C,R33*%
X207897500Y-120250000D03*
X207897500Y-118425000D03*
%TD*%
D21*
%TO.C,Q15*%
X126350000Y-114000000D03*
X124250000Y-113050000D03*
X124250000Y-114950000D03*
%TD*%
D11*
%TO.C,D2*%
X102725000Y-85625000D03*
X100975000Y-85625000D03*
%TD*%
D19*
%TO.C,R16*%
X122450000Y-114975000D03*
X122450000Y-113150000D03*
%TD*%
%TO.C,R35*%
X143900000Y-98600000D03*
X143900000Y-96775000D03*
%TD*%
D20*
%TO.C,D6*%
X156600000Y-73512500D03*
X156600000Y-71762500D03*
%TD*%
D12*
%TO.C,C18*%
X182580000Y-74239750D03*
X182580000Y-72514750D03*
%TD*%
D15*
%TO.C,R18*%
X104455000Y-85650000D03*
X106280000Y-85650000D03*
%TD*%
%TO.C,R36*%
X165800000Y-104350000D03*
X167625000Y-104350000D03*
%TD*%
D22*
%TO.C,R40*%
X131762500Y-95350000D03*
X129937500Y-95350000D03*
%TD*%
D15*
%TO.C,R2*%
X161137500Y-89800000D03*
X162962500Y-89800000D03*
%TD*%
D12*
%TO.C,C23*%
X185220000Y-112105000D03*
X185220000Y-110380000D03*
%TD*%
D15*
%TO.C,R62*%
X186780000Y-114690000D03*
X188605000Y-114690000D03*
%TD*%
D11*
%TO.C,D12*%
X102825000Y-104050000D03*
X101075000Y-104050000D03*
%TD*%
D14*
%TO.C,R64*%
X208380000Y-114195000D03*
X208380000Y-116020000D03*
%TD*%
D32*
%TO.C,U2*%
X143936089Y-122049998D03*
X143936090Y-126349939D03*
X143136090Y-122049939D03*
X143136090Y-126350000D03*
X142336090Y-122049939D03*
X142336089Y-126350000D03*
X141536090Y-122049939D03*
X141536091Y-126350000D03*
X140736090Y-122049939D03*
X140736090Y-126350000D03*
X139936090Y-122049939D03*
X139936092Y-126350000D03*
X139136090Y-122049939D03*
X139136091Y-126350000D03*
X138336090Y-122049939D03*
X138336090Y-126350000D03*
X137536091Y-122049998D03*
X137536091Y-126350000D03*
X136736091Y-122049998D03*
X136736091Y-126350000D03*
X135936092Y-122049998D03*
X135936092Y-126350000D03*
X135136091Y-122049998D03*
X135136091Y-126350000D03*
X159690067Y-122099998D03*
X159690067Y-126400000D03*
X158890068Y-122099998D03*
X158890068Y-126400000D03*
X158090067Y-122099998D03*
X158090067Y-126400000D03*
X157290069Y-122099998D03*
X157290069Y-126400000D03*
X156490068Y-122099998D03*
X156490068Y-126400000D03*
X155690070Y-122099998D03*
X155690070Y-126400000D03*
X154890069Y-122099998D03*
X154890069Y-126400000D03*
X154090068Y-122099998D03*
X154090068Y-126400000D03*
X153290069Y-122099998D03*
X153290069Y-126400000D03*
X152490069Y-122099998D03*
X152490069Y-126400000D03*
X151690070Y-122099998D03*
X151690070Y-126400000D03*
X150890069Y-122099998D03*
X150890069Y-126400000D03*
%TD*%
D19*
%TO.C,R12*%
X122375000Y-96275000D03*
X122375000Y-94450000D03*
%TD*%
D22*
%TO.C,R44*%
X133150000Y-114200000D03*
X131325000Y-114200000D03*
%TD*%
D11*
%TO.C,D11*%
X102875000Y-88900000D03*
X101125000Y-88900000D03*
%TD*%
D22*
%TO.C,R42*%
X132950000Y-100100000D03*
X131125000Y-100100000D03*
%TD*%
D33*
%TO.C,F5*%
X101085000Y-83100000D03*
X99515000Y-83100000D03*
%TD*%
D15*
%TO.C,R4*%
X142950000Y-89775000D03*
X144775000Y-89775000D03*
%TD*%
D19*
%TO.C,R17*%
X122400000Y-119712500D03*
X122400000Y-117887500D03*
%TD*%
D11*
%TO.C,D9*%
X102800000Y-95250000D03*
X101050000Y-95250000D03*
%TD*%
D13*
%TO.C,Q4*%
X149550000Y-93500000D03*
X150500000Y-91400000D03*
X148600000Y-91400000D03*
%TD*%
D19*
%TO.C,R55*%
X181950000Y-120392500D03*
X181950000Y-118567500D03*
%TD*%
D17*
%TO.C,C2*%
X161175000Y-88090000D03*
X162900000Y-88090000D03*
%TD*%
D19*
%TO.C,R9*%
X101170000Y-112195000D03*
X101170000Y-110370000D03*
%TD*%
D34*
%TO.C,U6*%
X186355000Y-80059750D03*
X186355000Y-78789750D03*
X186355000Y-77519750D03*
X186355000Y-76249750D03*
X180933000Y-76249750D03*
X180933000Y-77519750D03*
X180933000Y-78789750D03*
X180933000Y-80059750D03*
%TD*%
D19*
%TO.C,R53*%
X184830000Y-120342500D03*
X184830000Y-118517500D03*
%TD*%
D35*
%TO.C,Q17*%
X199995000Y-70374636D03*
X198725000Y-70374636D03*
X197455000Y-70374636D03*
X196185000Y-70374636D03*
D36*
X196185000Y-76134636D03*
X199995000Y-76134636D03*
D37*
X198090000Y-74534636D03*
D38*
X198090000Y-72719636D03*
D39*
X198090000Y-72054636D03*
%TD*%
D35*
%TO.C,Q2*%
X196180000Y-67179636D03*
X197450000Y-67179636D03*
X198720000Y-67179636D03*
X199990000Y-67179636D03*
D36*
X199990000Y-61419636D03*
X196180000Y-61419636D03*
D37*
X198085000Y-63019636D03*
D38*
X198085000Y-64834636D03*
D39*
X198085000Y-65499636D03*
%TD*%
D30*
%TO.C,C5*%
X175200000Y-103525000D03*
X175200000Y-105250000D03*
%TD*%
D13*
%TO.C,Q10*%
X136950000Y-93650000D03*
X137900000Y-91550000D03*
X136000000Y-91550000D03*
%TD*%
D14*
%TO.C,R23*%
X153700000Y-75212500D03*
X153700000Y-77037500D03*
%TD*%
D11*
%TO.C,D5*%
X102825000Y-97850000D03*
X101075000Y-97850000D03*
%TD*%
D12*
%TO.C,C21*%
X198760000Y-84900000D03*
X198760000Y-83175000D03*
%TD*%
D10*
%TO.C,D13*%
X104050000Y-113975000D03*
X104050000Y-115725000D03*
%TD*%
D14*
%TO.C,R58*%
X204785000Y-83825000D03*
X204785000Y-85650000D03*
%TD*%
%TO.C,R6*%
X173450000Y-110050000D03*
X173450000Y-111875000D03*
%TD*%
D12*
%TO.C,C33*%
X169740000Y-71101000D03*
X169740000Y-69376000D03*
%TD*%
D40*
%TO.C,Q18*%
X202750000Y-116987500D03*
X201800000Y-119087500D03*
X203700000Y-119087500D03*
%TD*%
D30*
%TO.C,C6*%
X175100000Y-110125000D03*
X175100000Y-111850000D03*
%TD*%
D19*
%TO.C,R87*%
X188580000Y-74514750D03*
X188580000Y-72689750D03*
%TD*%
D10*
%TO.C,D22*%
X190555000Y-122125000D03*
X190555000Y-123875000D03*
%TD*%
D14*
%TO.C,R49*%
X199190000Y-118457500D03*
X199190000Y-120282500D03*
%TD*%
D22*
%TO.C,R47*%
X199750000Y-92775000D03*
X197925000Y-92775000D03*
%TD*%
D12*
%TO.C,C32*%
X172700000Y-71031000D03*
X172700000Y-69306000D03*
%TD*%
D15*
%TO.C,R20*%
X104517500Y-97850000D03*
X106342500Y-97850000D03*
%TD*%
D14*
%TO.C,R67*%
X204200000Y-115375000D03*
X204200000Y-117200000D03*
%TD*%
D12*
%TO.C,C9*%
X120475000Y-96225000D03*
X120475000Y-94500000D03*
%TD*%
D17*
%TO.C,C4*%
X143025000Y-88075000D03*
X144750000Y-88075000D03*
%TD*%
D15*
%TO.C,R13*%
X154150000Y-89850000D03*
X155975000Y-89850000D03*
%TD*%
D12*
%TO.C,C34*%
X167740000Y-71101000D03*
X167740000Y-69376000D03*
%TD*%
%TO.C,C26*%
X209890000Y-117612500D03*
X209890000Y-115887500D03*
%TD*%
D14*
%TO.C,R7*%
X173400000Y-95800000D03*
X173400000Y-97625000D03*
%TD*%
D19*
%TO.C,R86*%
X184580000Y-74339750D03*
X184580000Y-72514750D03*
%TD*%
D12*
%TO.C,C13*%
X120450000Y-114925000D03*
X120450000Y-113200000D03*
%TD*%
D41*
%TO.C,D4*%
X183795000Y-84474750D03*
X186595000Y-84474750D03*
%TD*%
D10*
%TO.C,D14*%
X106675000Y-113875000D03*
X106675000Y-115625000D03*
%TD*%
D12*
%TO.C,C24*%
X183670000Y-112092500D03*
X183670000Y-110367500D03*
%TD*%
D42*
%TO.C,F1*%
X218360000Y-115545000D03*
X218360000Y-113975000D03*
%TD*%
D22*
%TO.C,R68*%
X195412500Y-109400000D03*
X193587500Y-109400000D03*
%TD*%
D21*
%TO.C,Q16*%
X126250000Y-118800000D03*
X124150000Y-117850000D03*
X124150000Y-119750000D03*
%TD*%
D43*
%TO.C,IC2*%
X212145000Y-114040000D03*
X212145000Y-114990000D03*
X212145000Y-115940000D03*
X214545000Y-115940000D03*
X214545000Y-114040000D03*
%TD*%
D19*
%TO.C,R29*%
X106720000Y-112245000D03*
X106720000Y-110420000D03*
%TD*%
D10*
%TO.C,D15*%
X108900000Y-113825000D03*
X108900000Y-115575000D03*
%TD*%
D44*
%TO.C,D29*%
X205975000Y-108125000D03*
X203175000Y-108125000D03*
%TD*%
D19*
%TO.C,R52*%
X190600000Y-120192500D03*
X190600000Y-118367500D03*
%TD*%
D21*
%TO.C,Q13*%
X126600000Y-100150000D03*
X124500000Y-99200000D03*
X124500000Y-101100000D03*
%TD*%
D10*
%TO.C,D21*%
X193430000Y-122125000D03*
X193430000Y-123875000D03*
%TD*%
D15*
%TO.C,R26*%
X104555000Y-88900000D03*
X106380000Y-88900000D03*
%TD*%
D45*
%TO.C,F4*%
X191075000Y-73925000D03*
X193075000Y-73925000D03*
%TD*%
D22*
%TO.C,R66*%
X214262500Y-118370000D03*
X212437500Y-118370000D03*
%TD*%
D14*
%TO.C,R5*%
X173500000Y-103475000D03*
X173500000Y-105300000D03*
%TD*%
D15*
%TO.C,R25*%
X104455000Y-101100000D03*
X106280000Y-101100000D03*
%TD*%
D17*
%TO.C,C16*%
X188167500Y-78564750D03*
X189892500Y-78564750D03*
%TD*%
D12*
%TO.C,C11*%
X120500000Y-101125000D03*
X120500000Y-99400000D03*
%TD*%
D30*
%TO.C,C15*%
X188130000Y-80152250D03*
X188130000Y-81877250D03*
%TD*%
D15*
%TO.C,R46*%
X201787500Y-124287500D03*
X203612500Y-124287500D03*
%TD*%
D46*
%TO.C,D30*%
X196230000Y-83720000D03*
X196230000Y-79670000D03*
%TD*%
D31*
%TO.C,Q9*%
X169550000Y-96750000D03*
X171650000Y-97700000D03*
X171650000Y-95800000D03*
%TD*%
D15*
%TO.C,R38*%
X165625000Y-96750000D03*
X167450000Y-96750000D03*
%TD*%
D18*
%TO.C,RPP1*%
X200500000Y-83770000D03*
X200500000Y-84420000D03*
X200500000Y-85070000D03*
X200500000Y-85720000D03*
X203000000Y-85720000D03*
X203000000Y-85070000D03*
X203000000Y-84420000D03*
X203000000Y-83770000D03*
%TD*%
D10*
%TO.C,D19*%
X199180000Y-122125000D03*
X199180000Y-123875000D03*
%TD*%
D24*
%TO.C,D16*%
X201650000Y-92800000D03*
X203400000Y-92800000D03*
%TD*%
D10*
%TO.C,D25*%
X181930000Y-122125000D03*
X181930000Y-123875000D03*
%TD*%
%TO.C,D24*%
X187680000Y-122125000D03*
X187680000Y-123875000D03*
%TD*%
D22*
%TO.C,R57*%
X133062500Y-118800000D03*
X131237500Y-118800000D03*
%TD*%
%TO.C,R43*%
X133000000Y-109700000D03*
X131175000Y-109700000D03*
%TD*%
D21*
%TO.C,Q11*%
X126475000Y-95350000D03*
X124375000Y-94400000D03*
X124375000Y-96300000D03*
%TD*%
D14*
%TO.C,R10*%
X180695000Y-72824750D03*
X180695000Y-74649750D03*
%TD*%
D15*
%TO.C,R8*%
X135975000Y-89800000D03*
X137800000Y-89800000D03*
%TD*%
D21*
%TO.C,Q1*%
X126625000Y-105000000D03*
X124525000Y-104050000D03*
X124525000Y-105950000D03*
%TD*%
D22*
%TO.C,R59*%
X201537500Y-81475000D03*
X199712500Y-81475000D03*
%TD*%
D14*
%TO.C,R11*%
X182050000Y-104750000D03*
X182050000Y-106575000D03*
%TD*%
D19*
%TO.C,R41*%
X155150000Y-98500000D03*
X155150000Y-96675000D03*
%TD*%
D10*
%TO.C,D1*%
X101175000Y-113900000D03*
X101175000Y-115650000D03*
%TD*%
D22*
%TO.C,R63*%
X188605000Y-116220000D03*
X186780000Y-116220000D03*
%TD*%
D20*
%TO.C,D17*%
X201800000Y-122662500D03*
X201800000Y-120912500D03*
%TD*%
D16*
%TO.C,C22*%
X191480000Y-80139750D03*
X189755000Y-80139750D03*
%TD*%
%TO.C,C19*%
X206072500Y-82100000D03*
X204347500Y-82100000D03*
%TD*%
D13*
%TO.C,Q12*%
X155100000Y-93700000D03*
X156050000Y-91600000D03*
X154150000Y-91600000D03*
%TD*%
D11*
%TO.C,D10*%
X102650000Y-101200000D03*
X100900000Y-101200000D03*
%TD*%
D14*
%TO.C,R65*%
X216790000Y-115627500D03*
X216790000Y-117452500D03*
%TD*%
%TO.C,R50*%
X196310000Y-118467500D03*
X196310000Y-120292500D03*
%TD*%
D22*
%TO.C,R31*%
X133000000Y-105000000D03*
X131175000Y-105000000D03*
%TD*%
D15*
%TO.C,R24*%
X104517500Y-95200000D03*
X106342500Y-95200000D03*
%TD*%
D19*
%TO.C,R51*%
X193430000Y-120272500D03*
X193430000Y-118447500D03*
%TD*%
D31*
%TO.C,Q8*%
X169500000Y-110950000D03*
X171600000Y-111900000D03*
X171600000Y-110000000D03*
%TD*%
D19*
%TO.C,R1*%
X122475000Y-105925000D03*
X122475000Y-104100000D03*
%TD*%
D12*
%TO.C,C25*%
X209900000Y-114122500D03*
X209900000Y-112397500D03*
%TD*%
%TO.C,C17*%
X186580000Y-74514750D03*
X186580000Y-72789750D03*
%TD*%
D17*
%TO.C,C8*%
X136025000Y-88100000D03*
X137750000Y-88100000D03*
%TD*%
D19*
%TO.C,R32*%
X162050000Y-98375000D03*
X162050000Y-96550000D03*
%TD*%
D12*
%TO.C,C1*%
X120475000Y-105875000D03*
X120475000Y-104150000D03*
%TD*%
D14*
%TO.C,R22*%
X161200000Y-75287500D03*
X161200000Y-77112500D03*
%TD*%
D10*
%TO.C,D23*%
X184805000Y-122125000D03*
X184805000Y-123875000D03*
%TD*%
D47*
%TO.C,L1*%
X173475000Y-82734750D03*
X173475000Y-74234750D03*
%TD*%
D19*
%TO.C,R39*%
X136950000Y-98575000D03*
X136950000Y-96750000D03*
%TD*%
D11*
%TO.C,D3*%
X102925000Y-92225000D03*
X101175000Y-92225000D03*
%TD*%
D19*
%TO.C,R14*%
X122400000Y-101175000D03*
X122400000Y-99350000D03*
%TD*%
M02*
